<?xml version="1.0" encoding="UTF-8"?>
<!DOCTYPE svg PUBLIC "-//W3C//DTD SVG 1.1//EN" "http://www.w3.org/Graphics/SVG/1.1/DTD/svg11.dtd">
<svg xmlns="http://www.w3.org/2000/svg" version="1.1" width="1442px" height="1154px" style="shape-rendering:geometricPrecision; text-rendering:geometricPrecision; image-rendering:optimizeQuality; fill-rule:evenodd; clip-rule:evenodd" xmlns:xlink="http://www.w3.org/1999/xlink">
<g><path style="opacity:0.946" fill="#9fb494" d="M 615.5,154.5 C 591.156,154.325 566.823,154.658 542.5,155.5C 566.805,152.191 591.138,151.858 615.5,154.5 Z"/></g>
<g><path style="opacity:0.424" fill="#9bb191" d="M 621.5,154.5 C 633.1,155.252 644.433,156.918 655.5,159.5C 645.173,158.335 634.84,157.168 624.5,156C 623.263,155.768 622.263,155.268 621.5,154.5 Z"/></g>
<g><path style="opacity:0.909" fill="#f4d86e" d="M 1175.5,154.5 C 1152.45,154.106 1129.45,154.773 1106.5,156.5C 1106.5,156.167 1106.5,155.833 1106.5,155.5C 1120.23,154.003 1134.07,153.336 1148,153.5C 1157.34,153.5 1166.51,153.834 1175.5,154.5 Z"/></g>
<g><path style="opacity:1" fill="#3a6e32" d="M 615.5,154.5 C 617.5,154.5 619.5,154.5 621.5,154.5C 622.263,155.268 623.263,155.768 624.5,156C 634.84,157.168 645.173,158.335 655.5,159.5C 655.611,160.117 655.944,160.617 656.5,161C 660.832,161.583 665.165,162.083 669.5,162.5C 696.85,169.84 722.85,180.507 747.5,194.5C 749.23,195.026 750.564,196.026 751.5,197.5C 751.389,198.117 751.056,198.617 750.5,199C 752.949,199.725 755.283,200.725 757.5,202C 763.384,206.433 769.384,210.599 775.5,214.5C 777.239,217.243 779.573,219.243 782.5,220.5C 784.239,223.243 786.573,225.243 789.5,226.5C 791.167,228.5 792.833,230.5 794.5,232.5C 718.833,308.833 642.833,384.833 566.5,460.5C 562.902,450.277 557.568,441.277 550.5,433.5C 549.026,432.564 548.026,431.23 547.5,429.5C 544.188,424.188 539.855,419.855 534.5,416.5C 533.415,414.413 531.749,413.08 529.5,412.5C 524.159,409.497 518.825,406.497 513.5,403.5C 502.588,398.019 490.921,394.853 478.5,394C 469.833,393.333 461.167,393.333 452.5,394C 449.635,394.183 446.969,394.683 444.5,395.5C 427.635,397.121 411.635,401.788 396.5,409.5C 395.702,409.957 395.369,410.624 395.5,411.5C 393.337,413.083 391.004,414.416 388.5,415.5C 385.109,416.529 382.443,418.529 380.5,421.5C 378.251,422.08 376.585,423.413 375.5,425.5C 372.833,428.833 369.833,431.833 366.5,434.5C 363.427,436.569 361.094,439.236 359.5,442.5C 358.876,444.754 357.543,446.421 355.5,447.5C 353.738,448.262 352.738,449.596 352.5,451.5C 348.506,455.479 345.506,460.145 343.5,465.5C 341.75,469.335 339.75,473.001 337.5,476.5C 335.808,478.205 334.475,480.205 333.5,482.5C 228.914,379.582 124.247,276.582 19.5,173.5C 105.833,173.5 192.167,173.5 278.5,173.5C 278.168,224.669 278.501,275.669 279.5,326.5C 280.496,326.586 281.329,326.252 282,325.5C 283.608,321.944 285.441,318.611 287.5,315.5C 293.082,306.673 298.415,297.673 303.5,288.5C 303.427,286.973 304.094,285.973 305.5,285.5C 311.648,278.537 317.315,271.203 322.5,263.5C 324.914,262.089 326.581,260.089 327.5,257.5C 327.833,256.5 328.5,255.833 329.5,255.5C 336.167,249.5 342.5,243.167 348.5,236.5C 348.5,235.167 349.167,234.5 350.5,234.5C 358.149,228.848 365.482,222.848 372.5,216.5C 379.68,212.078 386.68,207.412 393.5,202.5C 397.833,199.331 402.5,196.664 407.5,194.5C 439.281,179.13 472.281,167.797 506.5,160.5C 518.407,159.593 530.073,157.926 541.5,155.5C 541.833,155.5 542.167,155.5 542.5,155.5C 566.823,154.658 591.156,154.325 615.5,154.5 Z"/></g>
<g><path style="opacity:0.345" fill="#f5dd7f" d="M 1106.5,155.5 C 1106.5,155.833 1106.5,156.167 1106.5,156.5C 1096.48,157.354 1086.48,158.354 1076.5,159.5C 1086.24,157.23 1096.24,155.896 1106.5,155.5 Z"/></g>
<g><path style="opacity:1" fill="#ecc415" d="M 1175.5,154.5 C 1181.87,154.347 1188.2,154.68 1194.5,155.5C 1207.94,158.04 1221.61,160.04 1235.5,161.5C 1237.41,161.216 1239.08,161.549 1240.5,162.5C 1250.36,166.134 1260.36,168.467 1270.5,169.5C 1270.83,169.5 1271.17,169.5 1271.5,169.5C 1274.41,172.449 1278.08,174.116 1282.5,174.5C 1285.6,175.216 1288.6,176.216 1291.5,177.5C 1300.09,182.217 1308.92,186.884 1318,191.5C 1318.4,191.272 1318.57,190.938 1318.5,190.5C 1318.83,190.5 1319.17,190.5 1319.5,190.5C 1319.57,192.411 1320.57,193.578 1322.5,194C 1321.29,194.893 1321.29,195.726 1322.5,196.5C 1324.13,195.465 1325.8,195.465 1327.5,196.5C 1329.43,197.11 1331.1,198.11 1332.5,199.5C 1338.5,204.82 1344.83,209.82 1351.5,214.5C 1354.58,216.372 1357.25,218.705 1359.5,221.5C 1360.75,224.093 1362.42,226.427 1364.5,228.5C 1364.5,228.833 1364.5,229.167 1364.5,229.5C 1287.83,305.833 1211.17,382.167 1134.5,458.5C 1134.17,458.5 1133.83,458.5 1133.5,458.5C 1132.26,454.345 1130.26,450.678 1127.5,447.5C 1127.57,445.973 1126.91,444.973 1125.5,444.5C 1125.57,442.973 1124.91,441.973 1123.5,441.5C 1123.45,439.368 1122.45,438.035 1120.5,437.5C 1117.5,433.5 1114.5,429.5 1111.5,425.5C 1109.09,421.424 1105.76,418.424 1101.5,416.5C 1097.77,413.441 1093.77,410.774 1089.5,408.5C 1087.49,405.973 1084.82,404.139 1081.5,403C 1062.06,395.07 1042.06,392.57 1021.5,395.5C 1015.77,395.283 1010.1,395.783 1004.5,397C 1003.24,397.417 1002.58,398.25 1002.5,399.5C 1001.83,399.5 1001.17,399.5 1000.5,399.5C 999.053,398.115 998.053,398.448 997.5,400.5C 996.833,400.5 996.167,400.5 995.5,400.5C 989.457,400.286 983.791,401.952 978.5,405.5C 974.642,406.839 970.642,407.673 966.5,408C 966.833,408.333 967.167,408.667 967.5,409C 964.408,410.121 961.408,411.287 958.5,412.5C 958.567,413.959 958.234,415.292 957.5,416.5C 957.5,417.167 957.167,417.5 956.5,417.5C 956.565,417.062 956.399,416.728 956,416.5C 954.961,417.244 954.461,418.244 954.5,419.5C 954.167,419.5 953.833,419.5 953.5,419.5C 953.565,419.062 953.399,418.728 953,418.5C 949.308,421.365 945.808,424.365 942.5,427.5C 940.167,430.5 937.5,433.167 934.5,435.5C 931.097,437.9 928.43,440.9 926.5,444.5C 925.299,446.909 923.633,448.909 921.5,450.5C 919.178,451.802 917.845,453.802 917.5,456.5C 916.026,457.436 915.026,458.77 914.5,460.5C 913.312,461.048 912.145,461.381 911,461.5C 910.395,464.306 909.062,466.64 907,468.5C 905.748,471.014 905.248,473.68 905.5,476.5C 900.01,486.621 895.677,497.288 892.5,508.5C 892.611,509.117 892.944,509.617 893.5,510C 889.799,518.985 886.799,528.151 884.5,537.5C 880.728,549.438 878.228,561.772 877,574.5C 874.561,594.098 873.061,613.764 872.5,633.5C 872.5,661.833 872.5,690.167 872.5,718.5C 872.5,718.833 872.5,719.167 872.5,719.5C 824.835,765.832 777.501,812.499 730.5,859.5C 729.833,859.833 729.167,860.167 728.5,860.5C 680.446,813.445 632.446,766.445 584.5,719.5C 584.832,662.331 584.499,605.331 583.5,548.5C 584.113,542.729 583.446,537.396 581.5,532.5C 581.5,531.833 581.5,531.167 581.5,530.5C 582.158,529.207 582.492,527.707 582.5,526C 582.431,524.014 581.765,522.514 580.5,521.5C 580.5,520.833 580.5,520.167 580.5,519.5C 580.552,505.088 577.885,491.088 572.5,477.5C 570.564,472.039 568.231,466.705 565.5,461.5C 566.167,461.5 566.5,461.167 566.5,460.5C 642.833,384.833 718.833,308.833 794.5,232.5C 795.833,233.5 797.167,234.5 798.5,235.5C 799.833,236.167 800.833,237.167 801.5,238.5C 802.419,241.089 804.086,243.089 806.5,244.5C 807.5,244.833 808.167,245.5 808.5,246.5C 811.109,251.383 814.443,255.716 818.5,259.5C 819.906,259.973 820.573,260.973 820.5,262.5C 820.738,264.404 821.738,265.738 823.5,266.5C 823.427,268.027 824.094,269.027 825.5,269.5C 828.335,273.164 830.668,277.164 832.5,281.5C 835.915,288.665 839.582,295.665 843.5,302.5C 845.252,305.672 847.252,308.672 849.5,311.5C 851.262,310.738 852.262,309.404 852.5,307.5C 854.673,303.148 857.34,299.148 860.5,295.5C 862.669,293.66 864.002,291.326 864.5,288.5C 867.52,286.477 869.854,283.81 871.5,280.5C 872.786,277.883 874.453,275.55 876.5,273.5C 879.243,271.761 881.243,269.427 882.5,266.5C 885.573,264.431 887.906,261.764 889.5,258.5C 890.5,256.833 891.833,255.5 893.5,254.5C 897.5,251.167 901.167,247.5 904.5,243.5C 907.464,241.552 910.464,239.552 913.5,237.5C 916.247,233.955 919.247,230.622 922.5,227.5C 927.214,223.454 932.214,219.788 937.5,216.5C 941.707,214.565 945.373,211.898 948.5,208.5C 949.552,208.649 950.552,208.483 951.5,208C 955.08,205.723 958.414,203.223 961.5,200.5C 964.678,197.742 968.345,195.742 972.5,194.5C 978.818,192.008 984.818,189.008 990.5,185.5C 1001,182.452 1011,178.452 1020.5,173.5C 1020.83,173.5 1021.17,173.5 1021.5,173.5C 1024.03,173.741 1025.7,172.741 1026.5,170.5C 1029.11,169.629 1031.78,168.963 1034.5,168.5C 1034.74,169.097 1035.24,169.43 1036,169.5C 1038.18,169.302 1039.68,168.302 1040.5,166.5C 1040.83,166.5 1041.17,166.5 1041.5,166.5C 1041.92,167.124 1042.58,167.457 1043.5,167.5C 1050.97,165.589 1058.31,163.589 1065.5,161.5C 1069.42,161.57 1073.09,160.903 1076.5,159.5C 1086.48,158.354 1096.48,157.354 1106.5,156.5C 1129.45,154.773 1152.45,154.106 1175.5,154.5 Z"/></g>
<g><path style="opacity:0.373" fill="#f5de82" d="M 1194.5,155.5 C 1208.44,156.586 1222.1,158.586 1235.5,161.5C 1221.61,160.04 1207.94,158.04 1194.5,155.5 Z"/></g>
<g><path style="opacity:0.792" fill="#7f9e76" d="M 541.5,155.5 C 530.073,157.926 518.407,159.593 506.5,160.5C 517.889,157.825 529.556,156.159 541.5,155.5 Z"/></g>
<g><path style="opacity:0.275" fill="#f5de82" d="M 1076.5,159.5 C 1073.09,160.903 1069.42,161.57 1065.5,161.5C 1068.88,159.918 1072.54,159.251 1076.5,159.5 Z"/></g>
<g><path style="opacity:0.122" fill="#8faa86" d="M 655.5,159.5 C 660.444,159.754 665.111,160.754 669.5,162.5C 665.165,162.083 660.832,161.583 656.5,161C 655.944,160.617 655.611,160.117 655.5,159.5 Z"/></g>
<g><path style="opacity:0.573" fill="#f4db79" d="M 1065.5,161.5 C 1058.31,163.589 1050.97,165.589 1043.5,167.5C 1042.58,167.457 1041.92,167.124 1041.5,166.5C 1049.31,164.07 1057.31,162.404 1065.5,161.5 Z"/></g>
<g><path style="opacity:0.627" fill="#f4dc7b" d="M 1240.5,162.5 C 1250.74,163.893 1260.74,166.226 1270.5,169.5C 1260.36,168.467 1250.36,166.134 1240.5,162.5 Z"/></g>
<g><path style="opacity:0.569" fill="#f4dc80" d="M 1040.5,166.5 C 1039.68,168.302 1038.18,169.302 1036,169.5C 1035.24,169.43 1034.74,169.097 1034.5,168.5C 1036.5,167.833 1038.5,167.167 1040.5,166.5 Z"/></g>
<g><path style="opacity:0.231" fill="#779b71" d="M 279.5,326.5 C 278.501,275.669 278.168,224.669 278.5,173.5C 192.167,173.5 105.833,173.5 19.5,173.5C 18.5269,175.948 18.1936,178.615 18.5,181.5C 17.1816,178.435 17.1816,175.269 18.5,172C 105.499,171.5 192.499,171.333 279.5,171.5C 279.5,223.167 279.5,274.833 279.5,326.5 Z"/></g>
<g><path style="opacity:0.518" fill="#f4dc7b" d="M 1026.5,170.5 C 1025.7,172.741 1024.03,173.741 1021.5,173.5C 1022.49,171.592 1024.15,170.592 1026.5,170.5 Z"/></g>
<g><path style="opacity:0.545" fill="#f6df89" d="M 1271.5,169.5 C 1275.7,170.223 1279.37,171.89 1282.5,174.5C 1278.08,174.116 1274.41,172.449 1271.5,169.5 Z"/></g>
<g><path style="opacity:0.518" fill="#86a27b" d="M 506.5,160.5 C 472.281,167.797 439.281,179.13 407.5,194.5C 407.953,193.542 408.619,192.708 409.5,192C 432.711,180.82 456.711,171.82 481.5,165C 489.747,162.917 498.081,161.417 506.5,160.5 Z"/></g>
<g><path style="opacity:1" fill="#96a82e" d="M 19.5,173.5 C 124.247,276.582 228.914,379.582 333.5,482.5C 328.507,493.48 324.507,504.813 321.5,516.5C 321.5,516.833 321.5,517.167 321.5,517.5C 319.72,518.99 319.054,520.99 319.5,523.5C 314.264,539.835 310.597,556.669 308.5,574C 308.514,575.385 308.848,576.551 309.5,577.5C 309.5,577.833 309.5,578.167 309.5,578.5C 308.883,578.611 308.383,578.944 308,579.5C 307.667,582.167 307.333,584.833 307,587.5C 306.195,590.696 306.362,593.696 307.5,596.5C 307.5,596.833 307.5,597.167 307.5,597.5C 306.213,598.871 305.547,600.705 305.5,603C 305.506,605.033 305.839,606.866 306.5,608.5C 306.5,609.5 306.5,610.5 306.5,611.5C 304.631,613.635 303.964,616.302 304.5,619.5C 304.5,623.833 304.5,628.167 304.5,632.5C 303.502,661.329 303.169,690.329 303.5,719.5C 209.528,815.139 114.861,910.139 19.5,1004.5C 19.8329,885.999 19.4995,767.665 18.5,649.5C 18.5,493.5 18.5,337.5 18.5,181.5C 18.1936,178.615 18.5269,175.948 19.5,173.5 Z"/></g>
<g><path style="opacity:0.851" fill="#f3d766" d="M 1020.5,173.5 C 1011,178.452 1001,182.452 990.5,185.5C 1000.03,180.542 1010.03,176.542 1020.5,173.5 Z"/></g>
<g><path style="opacity:0.333" fill="#8fa985" d="M 669.5,162.5 C 680.765,164.233 691.765,167.066 702.5,171C 714.551,176.466 726.551,182.133 738.5,188C 741.921,189.699 744.921,191.865 747.5,194.5C 722.85,180.507 696.85,169.84 669.5,162.5 Z"/></g>
<g><path style="opacity:0.412" fill="#f4dc7c" d="M 1291.5,177.5 C 1300.93,181.049 1309.93,185.383 1318.5,190.5C 1318.57,190.938 1318.4,191.272 1318,191.5C 1308.92,186.884 1300.09,182.217 1291.5,177.5 Z"/></g>
<g><path style="opacity:0.388" fill="#f6e293" d="M 990.5,185.5 C 984.818,189.008 978.818,192.008 972.5,194.5C 972.953,193.542 973.619,192.708 974.5,192C 979.752,189.538 985.085,187.371 990.5,185.5 Z"/></g>
<g><path style="opacity:1" fill="#f3d466" d="M 1319.5,190.5 C 1322.47,192.147 1325.14,194.147 1327.5,196.5C 1325.14,194.147 1322.47,192.147 1319.5,190.5 Z"/></g>
<g><path style="opacity:0.447" fill="#f4dc7d" d="M 961.5,200.5 C 958.414,203.223 955.08,205.723 951.5,208C 950.552,208.483 949.552,208.649 948.5,208.5C 952.323,205.084 956.657,202.418 961.5,200.5 Z"/></g>
<g><path style="opacity:0.212" fill="#8fa884" d="M 751.5,197.5 C 760.562,201.695 768.562,207.362 775.5,214.5C 769.384,210.599 763.384,206.433 757.5,202C 755.283,200.725 752.949,199.725 750.5,199C 751.056,198.617 751.389,198.117 751.5,197.5 Z"/></g>
<g><path style="opacity:0.208" fill="#9eb394" d="M 393.5,202.5 C 386.68,207.412 379.68,212.078 372.5,216.5C 373.625,214.871 374.959,213.371 376.5,212C 381.898,208.302 387.565,205.136 393.5,202.5 Z"/></g>
<g><path style="opacity:0.102" fill="#f6e08c" d="M 1332.5,199.5 C 1339.79,203.473 1346.12,208.473 1351.5,214.5C 1344.83,209.82 1338.5,204.82 1332.5,199.5 Z"/></g>
<g><path style="opacity:0.365" fill="#f6e294" d="M 948.5,208.5 C 945.373,211.898 941.707,214.565 937.5,216.5C 940.272,212.613 943.939,209.946 948.5,208.5 Z"/></g>
<g><path style="opacity:0.245" fill="#91aa87" d="M 775.5,214.5 C 778.427,215.757 780.761,217.757 782.5,220.5C 779.573,219.243 777.239,217.243 775.5,214.5 Z"/></g>
<g><path style="opacity:0.369" fill="#8ca681" d="M 372.5,216.5 C 365.482,222.848 358.149,228.848 350.5,234.5C 350.859,232.629 351.859,231.129 353.5,230C 359.54,224.99 365.874,220.49 372.5,216.5 Z"/></g>
<g><path style="opacity:0.106" fill="#90a986" d="M 782.5,220.5 C 785.427,221.757 787.761,223.757 789.5,226.5C 786.573,225.243 784.239,223.243 782.5,220.5 Z"/></g>
<g><path style="opacity:0.463" fill="#f4df92" d="M 1359.5,221.5 C 1361.83,223.167 1363.83,225.167 1365.5,227.5C 1365.5,228.167 1365.17,228.5 1364.5,228.5C 1362.42,226.427 1360.75,224.093 1359.5,221.5 Z"/></g>
<g><path style="opacity:0.024" fill="#cbd1b1" d="M 789.5,226.5 C 793.5,228.5 796.5,231.5 798.5,235.5C 797.167,234.5 795.833,233.5 794.5,232.5C 792.833,230.5 791.167,228.5 789.5,226.5 Z"/></g>
<g><path style="opacity:1" fill="#024a94" d="M 1364.5,229.5 C 1367.78,231.773 1370.78,234.44 1373.5,237.5C 1374.42,240.089 1376.09,242.089 1378.5,243.5C 1380.26,244.262 1381.26,245.596 1381.5,247.5C 1383.34,251.192 1385.68,254.525 1388.5,257.5C 1389.34,257.842 1389.67,258.508 1389.5,259.5C 1389.43,261.027 1390.09,262.027 1391.5,262.5C 1393.92,265.008 1395.59,268.008 1396.5,271.5C 1396.43,273.027 1397.09,274.027 1398.5,274.5C 1399.77,276.713 1400.77,279.046 1401.5,281.5C 1403.99,288.472 1406.99,295.139 1410.5,301.5C 1411.4,302.209 1411.74,303.209 1411.5,304.5C 1413.26,311.784 1415.59,318.784 1418.5,325.5C 1423.48,344.11 1427.82,362.777 1431.5,381.5C 1431.29,388.818 1432.29,395.818 1434.5,402.5C 1434.5,402.833 1434.5,403.167 1434.5,403.5C 1434.33,407.846 1434.5,412.179 1435,416.5C 1435.21,418.058 1435.71,419.391 1436.5,420.5C 1438.95,443.115 1440.61,465.781 1441.5,488.5C 1441.5,554.833 1441.5,621.167 1441.5,687.5C 1440.51,697.653 1440.17,707.986 1440.5,718.5C 1439.83,719.167 1439.17,719.833 1438.5,720.5C 1391.7,766.799 1345.03,813.299 1298.5,860C 1297.91,860.464 1297.24,860.631 1296.5,860.5C 1248.5,813.5 1200.5,766.5 1152.5,719.5C 1152.5,661.167 1152.5,602.833 1152.5,544.5C 1151.83,526.65 1149.66,508.983 1146,491.5C 1144.27,484.889 1142.11,478.556 1139.5,472.5C 1138.26,470.351 1137.26,468.018 1136.5,465.5C 1135.54,463.254 1134.88,460.921 1134.5,458.5C 1211.17,382.167 1287.83,305.833 1364.5,229.5 Z"/></g>
<g><path style="opacity:0.004" fill="#8696c2" d="M 1365.5,227.5 C 1369.3,229.963 1371.97,233.296 1373.5,237.5C 1370.78,234.44 1367.78,231.773 1364.5,229.5C 1364.5,229.167 1364.5,228.833 1364.5,228.5C 1365.17,228.5 1365.5,228.167 1365.5,227.5 Z"/></g>
<g><path style="opacity:0.745" fill="#f3d668" d="M 922.5,227.5 C 919.247,230.622 916.247,233.955 913.5,237.5C 910.464,239.552 907.464,241.552 904.5,243.5C 908.176,239.665 911.843,235.832 915.5,232C 917.734,230.25 920.068,228.75 922.5,227.5 Z"/></g>
<g><path style="opacity:0.404" fill="#f5dd85" d="M 801.5,238.5 C 803.914,239.911 805.581,241.911 806.5,244.5C 804.086,243.089 802.419,241.089 801.5,238.5 Z"/></g>
<g><path style="opacity:0.294" fill="#8a9bc6" d="M 1373.5,237.5 C 1375.91,238.911 1377.58,240.911 1378.5,243.5C 1376.09,242.089 1374.42,240.089 1373.5,237.5 Z"/></g>
<g><path style="opacity:0.13" fill="#f6e39a" d="M 904.5,243.5 C 901.167,247.5 897.5,251.167 893.5,254.5C 896.167,249.833 899.833,246.167 904.5,243.5 Z"/></g>
<g><path style="opacity:0.333" fill="#96ad8a" d="M 348.5,236.5 C 342.5,243.167 336.167,249.5 329.5,255.5C 330.072,253.745 330.906,252.078 332,250.5C 337.392,245.6 342.892,240.933 348.5,236.5 Z"/></g>
<g><path style="opacity:0.337" fill="#9dabcf" d="M 1381.5,247.5 C 1384.8,250.087 1387.14,253.42 1388.5,257.5C 1385.68,254.525 1383.34,251.192 1381.5,247.5 Z"/></g>
<g><path style="opacity:0.325" fill="#f6e294" d="M 808.5,246.5 C 810.129,247.625 811.629,248.959 813,250.5C 815.358,253.222 817.191,256.222 818.5,259.5C 814.443,255.716 811.109,251.383 808.5,246.5 Z"/></g>
<g><path style="opacity:0.431" fill="#8ea782" d="M 327.5,257.5 C 326.581,260.089 324.914,262.089 322.5,263.5C 323.419,260.911 325.086,258.911 327.5,257.5 Z"/></g>
<g><path style="opacity:0.208" fill="#9da8cd" d="M 1389.5,259.5 C 1390.91,259.973 1391.57,260.973 1391.5,262.5C 1390.09,262.027 1389.43,261.027 1389.5,259.5 Z"/></g>
<g><path style="opacity:0.51" fill="#f6e399" d="M 820.5,262.5 C 822.262,263.262 823.262,264.596 823.5,266.5C 821.738,265.738 820.738,264.404 820.5,262.5 Z"/></g>
<g><path style="opacity:0.282" fill="#f6df8a" d="M 889.5,258.5 C 887.906,261.764 885.573,264.431 882.5,266.5C 884.094,263.236 886.427,260.569 889.5,258.5 Z"/></g>
<g><path style="opacity:0.192" fill="#f7e7a5" d="M 823.5,266.5 C 824.906,266.973 825.573,267.973 825.5,269.5C 824.094,269.027 823.427,268.027 823.5,266.5 Z"/></g>
<g><path style="opacity:0.443" fill="#f7e193" d="M 882.5,266.5 C 881.243,269.427 879.243,271.761 876.5,273.5C 877.757,270.573 879.757,268.239 882.5,266.5 Z"/></g>
<g><path style="opacity:0.043" fill="#b3bbd9" d="M 1396.5,271.5 C 1397.91,271.973 1398.57,272.973 1398.5,274.5C 1397.09,274.027 1396.43,273.027 1396.5,271.5 Z"/></g>
<g><path style="opacity:0.329" fill="#94ac8a" d="M 322.5,263.5 C 317.315,271.203 311.648,278.537 305.5,285.5C 309.717,277.075 315.384,269.741 322.5,263.5 Z"/></g>
<g><path style="opacity:0.424" fill="#f5df8a" d="M 871.5,280.5 C 869.854,283.81 867.52,286.477 864.5,288.5C 866.117,285.216 868.45,282.549 871.5,280.5 Z"/></g>
<g><path style="opacity:0.063" fill="#f7e6a3" d="M 832.5,281.5 C 837.953,287.399 841.619,294.399 843.5,302.5C 839.582,295.665 835.915,288.665 832.5,281.5 Z"/></g>
<g><path style="opacity:0.102" fill="#a2add0" d="M 1401.5,281.5 C 1406.03,287.396 1409.03,294.062 1410.5,301.5C 1406.99,295.139 1403.99,288.472 1401.5,281.5 Z"/></g>
<g><path style="opacity:0.525" fill="#f6e191" d="M 864.5,288.5 C 864.002,291.326 862.669,293.66 860.5,295.5C 860.998,292.674 862.331,290.34 864.5,288.5 Z"/></g>
<g><path style="opacity:0.145" fill="#a7ba9e" d="M 303.5,288.5 C 298.415,297.673 293.082,306.673 287.5,315.5C 290.107,308.952 293.274,302.619 297,296.5C 298.946,293.58 301.113,290.913 303.5,288.5 Z"/></g>
<g><path style="opacity:0.133" fill="#95a4cb" d="M 1411.5,304.5 C 1414.81,311.085 1417.14,318.085 1418.5,325.5C 1415.59,318.784 1413.26,311.784 1411.5,304.5 Z"/></g>
<g><path style="opacity:0.325" fill="#f7e59e" d="M 852.5,307.5 C 852.262,309.404 851.262,310.738 849.5,311.5C 849.738,309.596 850.738,308.262 852.5,307.5 Z"/></g>
<g><path style="opacity:0.098" fill="#9dadcf" d="M 1418.5,325.5 C 1425.31,343.416 1429.64,362.083 1431.5,381.5C 1427.82,362.777 1423.48,344.11 1418.5,325.5 Z"/></g>
<g><path style="opacity:0.776" fill="#718ebe" d="M 1431.5,381.5 C 1433.32,388.251 1434.32,395.251 1434.5,402.5C 1432.29,395.818 1431.29,388.818 1431.5,381.5 Z"/></g>
<g><path style="opacity:0.28" fill="#f6e28f" d="M 1021.5,395.5 C 1042.06,392.57 1062.06,395.07 1081.5,403C 1084.82,404.139 1087.49,405.973 1089.5,408.5C 1076.5,402.223 1062.83,398.056 1048.5,396C 1039.51,395.5 1030.51,395.334 1021.5,395.5 Z"/></g>
<g><path style="opacity:0.159" fill="#f7e497" d="M 1021.5,395.5 C 1015.38,397.234 1009.04,398.567 1002.5,399.5C 1002.58,398.25 1003.24,397.417 1004.5,397C 1010.1,395.783 1015.77,395.283 1021.5,395.5 Z"/></g>
<g><path style="opacity:0.031" fill="#9eb495" d="M 444.5,395.5 C 436.065,397.974 427.398,400.14 418.5,402C 410.488,404.499 402.821,407.666 395.5,411.5C 395.369,410.624 395.702,409.957 396.5,409.5C 411.635,401.788 427.635,397.121 444.5,395.5 Z"/></g>
<g><path style="opacity:0.31" fill="#a7bb9f" d="M 513.5,403.5 C 497.701,398.373 481.534,395.373 465,394.5C 458.162,394.818 451.328,395.151 444.5,395.5C 446.969,394.683 449.635,394.183 452.5,394C 461.167,393.333 469.833,393.333 478.5,394C 490.921,394.853 502.588,398.019 513.5,403.5 Z"/></g>
<g><path style="opacity:0.004" fill="#f8eab4" d="M 1000.5,399.5 C 999.609,400.11 998.609,400.443 997.5,400.5C 998.053,398.448 999.053,398.115 1000.5,399.5 Z"/></g>
<g><path style="opacity:0.106" fill="#f4dd80" d="M 995.5,400.5 C 989.992,402.332 984.325,403.999 978.5,405.5C 983.791,401.952 989.457,400.286 995.5,400.5 Z"/></g>
<g><path style="opacity:1" fill="#f2d25c" d="M 978.5,405.5 C 971.381,408.893 964.381,412.56 957.5,416.5C 958.234,415.292 958.567,413.959 958.5,412.5C 961.408,411.287 964.408,410.121 967.5,409C 967.167,408.667 966.833,408.333 966.5,408C 970.642,407.673 974.642,406.839 978.5,405.5 Z"/></g>
<g><path style="opacity:0.278" fill="#96ae8c" d="M 529.5,412.5 C 531.749,413.08 533.415,414.413 534.5,416.5C 532.251,415.92 530.585,414.587 529.5,412.5 Z"/></g>
<g><path style="opacity:0.012" fill="#f8e8ab" d="M 956.5,417.5 C 956.167,418.5 955.5,419.167 954.5,419.5C 954.461,418.244 954.961,417.244 956,416.5C 956.399,416.728 956.565,417.062 956.5,417.5 Z"/></g>
<g><path style="opacity:0.722" fill="#738abc" d="M 1434.5,403.5 C 1435.88,408.944 1436.55,414.611 1436.5,420.5C 1435.71,419.391 1435.21,418.058 1435,416.5C 1434.5,412.179 1434.33,407.846 1434.5,403.5 Z"/></g>
<g><path style="opacity:0.035" fill="#9bb192" d="M 388.5,415.5 C 386.557,418.471 383.891,420.471 380.5,421.5C 382.443,418.529 385.109,416.529 388.5,415.5 Z"/></g>
<g><path style="opacity:0.073" fill="#8ea682" d="M 534.5,416.5 C 539.855,419.855 544.188,424.188 547.5,429.5C 544.665,426.835 541.665,424.335 538.5,422C 536.536,420.549 535.203,418.716 534.5,416.5 Z"/></g>
<g><path style="opacity:0.117" fill="#f5de88" d="M 1101.5,416.5 C 1105.76,418.424 1109.09,421.424 1111.5,425.5C 1107.56,423.234 1104.23,420.234 1101.5,416.5 Z"/></g>
<g><path style="opacity:0.035" fill="#f5e08b" d="M 953.5,419.5 C 950.373,422.898 946.707,425.565 942.5,427.5C 945.808,424.365 949.308,421.365 953,418.5C 953.399,418.728 953.565,419.062 953.5,419.5 Z"/></g>
<g><path style="opacity:0.035" fill="#a0b596" d="M 380.5,421.5 C 379.415,423.587 377.749,424.92 375.5,425.5C 376.585,423.413 378.251,422.08 380.5,421.5 Z"/></g>
<g><path style="opacity:0.02" fill="#b4c4ac" d="M 366.5,434.5 C 364.906,437.764 362.573,440.431 359.5,442.5C 361.094,439.236 363.427,436.569 366.5,434.5 Z"/></g>
<g><path style="opacity:0.004" fill="#f9e9b2" d="M 1120.5,437.5 C 1122.45,438.035 1123.45,439.368 1123.5,441.5C 1122.03,440.564 1121.03,439.23 1120.5,437.5 Z"/></g>
<g><path style="opacity:0.008" fill="#f8e9b1" d="M 934.5,435.5 C 932.57,439.1 929.903,442.1 926.5,444.5C 928.43,440.9 931.097,437.9 934.5,435.5 Z"/></g>
<g><path style="opacity:0.004" fill="#f9ebb9" d="M 1123.5,441.5 C 1124.91,441.973 1125.57,442.973 1125.5,444.5C 1124.09,444.027 1123.43,443.027 1123.5,441.5 Z"/></g>
<g><path style="opacity:0.082" fill="#f7e6a4" d="M 1125.5,444.5 C 1126.91,444.973 1127.57,445.973 1127.5,447.5C 1126.09,447.027 1125.43,446.027 1125.5,444.5 Z"/></g>
<g><path style="opacity:0.004" fill="#b8c6af" d="M 355.5,447.5 C 355.262,449.404 354.262,450.738 352.5,451.5C 352.738,449.596 353.738,448.262 355.5,447.5 Z"/></g>
<g><path style="opacity:0.145" fill="#acbea5" d="M 550.5,433.5 C 557.568,441.277 562.902,450.277 566.5,460.5C 566.5,461.167 566.167,461.5 565.5,461.5C 561.024,451.88 556.024,442.547 550.5,433.5 Z"/></g>
<g><path style="opacity:0.075" fill="#f6e295" d="M 921.5,450.5 C 920.66,452.853 919.326,454.853 917.5,456.5C 917.845,453.802 919.178,451.802 921.5,450.5 Z"/></g>
<g><path style="opacity:0.094" fill="#f9ebb3" d="M 1127.5,447.5 C 1130.26,450.678 1132.26,454.345 1133.5,458.5C 1133.5,459.167 1133.17,459.5 1132.5,459.5C 1130.83,455.5 1129.17,451.5 1127.5,447.5 Z"/></g>
<g><path style="opacity:0.039" fill="#f9ebb7" d="M 917.5,456.5 C 917.008,458.819 916.008,460.819 914.5,462.5C 914.5,461.833 914.5,461.167 914.5,460.5C 915.026,458.77 916.026,457.436 917.5,456.5 Z"/></g>
<g><path style="opacity:0.071" fill="#abbda2" d="M 352.5,451.5 C 350.494,456.855 347.494,461.521 343.5,465.5C 345.506,460.145 348.506,455.479 352.5,451.5 Z"/></g>
<g><path style="opacity:0.993" fill="#f2cf53" d="M 914.5,460.5 C 914.5,461.167 914.5,461.833 914.5,462.5C 911.5,467.167 908.5,471.833 905.5,476.5C 905.248,473.68 905.748,471.014 907,468.5C 909.062,466.64 910.395,464.306 911,461.5C 912.145,461.381 913.312,461.048 914.5,460.5 Z"/></g>
<g><path style="opacity:0.043" fill="#bdc3dc" d="M 1133.5,458.5 C 1133.83,458.5 1134.17,458.5 1134.5,458.5C 1134.88,460.921 1135.54,463.254 1136.5,465.5C 1134.68,463.882 1133.35,461.882 1132.5,459.5C 1133.17,459.5 1133.5,459.167 1133.5,458.5 Z"/></g>
<g><path style="opacity:0.251" fill="#f6e08c" d="M 572.5,477.5 C 577.885,491.088 580.552,505.088 580.5,519.5C 578.478,505.366 575.811,491.366 572.5,477.5 Z"/></g>
<g><path style="opacity:0.02" fill="#cdd5a8" d="M 337.5,476.5 C 331.672,489.172 327.005,502.006 323.5,515C 322.956,515.717 322.289,516.217 321.5,516.5C 324.507,504.813 328.507,493.48 333.5,482.5C 334.475,480.205 335.808,478.205 337.5,476.5 Z"/></g>
<g><path style="opacity:0.3" fill="#8297c2" d="M 1139.5,472.5 C 1142.11,478.556 1144.27,484.889 1146,491.5C 1149.66,508.983 1151.83,526.65 1152.5,544.5C 1151.83,543.167 1151.17,541.833 1150.5,540.5C 1149.81,517.33 1146.14,494.664 1139.5,472.5 Z"/></g>
<g><path style="opacity:0.02" fill="#f8e6a6" d="M 905.5,476.5 C 901.708,486.591 898.042,496.758 894.5,507C 894.164,508.03 893.497,508.53 892.5,508.5C 895.677,497.288 900.01,486.621 905.5,476.5 Z"/></g>
<g><path style="opacity:0.431" fill="#c8d091" d="M 321.5,517.5 C 321.405,519.786 320.738,521.786 319.5,523.5C 319.054,520.99 319.72,518.99 321.5,517.5 Z"/></g>
<g><path style="opacity:0.4" fill="#f7e397" d="M 580.5,521.5 C 581.765,522.514 582.431,524.014 582.5,526C 582.492,527.707 582.158,529.207 581.5,530.5C 581.296,527.482 580.963,524.482 580.5,521.5 Z"/></g>
<g><path style="opacity:0.329" fill="#f7e49e" d="M 581.5,532.5 C 583.446,537.396 584.113,542.729 583.5,548.5C 583.5,549.167 583.167,549.5 582.5,549.5C 582.093,543.839 581.76,538.172 581.5,532.5 Z"/></g>
<g><path style="opacity:0.259" fill="#c4cd8b" d="M 319.5,523.5 C 315.267,541.331 311.934,559.331 309.5,577.5C 308.848,576.551 308.514,575.385 308.5,574C 310.597,556.669 314.264,539.835 319.5,523.5 Z"/></g>
<g><path style="opacity:0.231" fill="#d1d3d2" d="M 1150.5,540.5 C 1151.17,541.833 1151.83,543.167 1152.5,544.5C 1152.5,602.833 1152.5,661.167 1152.5,719.5C 1152.83,811.668 1152.5,903.668 1151.5,995.5C 1151.82,843.823 1151.49,692.157 1150.5,540.5 Z"/></g>
<g><path style="opacity:0.353" fill="#f5e08b" d="M 884.5,537.5 C 878.312,569.192 874.979,601.192 874.5,633.5C 873.833,633.5 873.167,633.5 872.5,633.5C 873.061,613.764 874.561,594.098 877,574.5C 878.228,561.772 880.728,549.438 884.5,537.5 Z"/></g>
<g><path style="opacity:0.459" fill="#c7d08f" d="M 309.5,578.5 C 308.906,584.51 308.24,590.51 307.5,596.5C 306.362,593.696 306.195,590.696 307,587.5C 307.333,584.833 307.667,582.167 308,579.5C 308.383,578.944 308.883,578.611 309.5,578.5 Z"/></g>
<g><path style="opacity:0.689" fill="#efd045" d="M 583.5,548.5 C 584.499,605.331 584.832,662.331 584.5,719.5C 583.833,719.5 583.167,719.5 582.5,719.5C 582.5,662.833 582.5,606.167 582.5,549.5C 583.167,549.5 583.5,549.167 583.5,548.5 Z"/></g>
<g><path style="opacity:0.431" fill="#c4cd8a" d="M 307.5,597.5 C 307.448,601.198 307.114,604.865 306.5,608.5C 305.839,606.866 305.506,605.033 305.5,603C 305.547,600.705 306.213,598.871 307.5,597.5 Z"/></g>
<g><path style="opacity:0.034" fill="#c0ca84" d="M 306.5,611.5 C 306.5,614.167 306.5,616.833 306.5,619.5C 305.833,619.5 305.167,619.5 304.5,619.5C 303.964,616.302 304.631,613.635 306.5,611.5 Z"/></g>
<g><path style="opacity:0.121" fill="#dfe5c0" d="M 304.5,619.5 C 305.167,619.5 305.833,619.5 306.5,619.5C 305.873,624.141 305.54,628.807 305.5,633.5C 304.833,633.5 304.5,633.167 304.5,632.5C 304.5,628.167 304.5,623.833 304.5,619.5 Z"/></g>
<g><path style="opacity:0.129" fill="#f9eebe" d="M 872.5,633.5 C 873.167,633.5 873.833,633.5 874.5,633.5C 873.597,662.128 873.264,690.461 873.5,718.5C 873.167,718.5 872.833,718.5 872.5,718.5C 872.5,690.167 872.5,661.833 872.5,633.5 Z"/></g>
<g><path style="opacity:0.027" fill="#d9daa0" d="M 304.5,632.5 C 304.5,633.167 304.833,633.5 305.5,633.5C 305.833,758.001 305.5,882.334 304.5,1006.5C 304.5,1006.17 304.5,1005.83 304.5,1005.5C 304.833,909.999 304.499,814.665 303.5,719.5C 303.169,690.329 303.502,661.329 304.5,632.5 Z"/></g>
<g><path style="opacity:0.616" fill="#abba5a" d="M 582.5,719.5 C 583.167,719.5 583.833,719.5 584.5,719.5C 584.5,782.833 584.5,846.167 584.5,909.5C 583.833,909.5 583.167,909.5 582.5,909.5C 582.5,846.167 582.5,782.833 582.5,719.5 Z"/></g>
<g><path style="opacity:1" fill="#96a82e" d="M 584.5,719.5 C 632.446,766.445 680.446,813.445 728.5,860.5C 681.167,908.5 633.5,956.167 585.5,1003.5C 584.502,972.338 584.168,941.004 584.5,909.5C 584.5,846.167 584.5,782.833 584.5,719.5 Z"/></g>
<g><path style="opacity:1" fill="#014a94" d="M 872.5,719.5 C 872.5,737.167 872.5,754.833 872.5,772.5C 871.501,812.33 871.168,852.33 871.5,892.5C 871.832,930.337 871.498,968.004 870.5,1005.5C 824.372,956.871 777.372,909.038 729.5,862C 730.252,861.329 730.586,860.496 730.5,859.5C 777.501,812.499 824.835,765.832 872.5,719.5 Z"/></g>
<g><path style="opacity:1" fill="#ecc415" d="M 303.5,719.5 C 304.499,814.665 304.833,909.999 304.5,1005.5C 209.332,1005.83 114.332,1005.5 19.5,1004.5C 114.861,910.139 209.528,815.139 303.5,719.5 Z"/></g>
<g><path style="opacity:1" fill="#ecc416" d="M 1152.5,719.5 C 1200.5,766.5 1248.5,813.5 1296.5,860.5C 1296.5,860.833 1296.5,861.167 1296.5,861.5C 1248.78,910.216 1200.45,958.216 1151.5,1005.5C 1151.5,1002.17 1151.5,998.833 1151.5,995.5C 1152.5,903.668 1152.83,811.668 1152.5,719.5 Z"/></g>
<g><path style="opacity:1" fill="#3a6e32" d="M 1438.5,720.5 C 1439.5,815.332 1439.83,910.332 1439.5,1005.5C 1391.72,957.392 1344.06,909.392 1296.5,861.5C 1296.5,861.167 1296.5,860.833 1296.5,860.5C 1297.24,860.631 1297.91,860.464 1298.5,860C 1345.03,813.299 1391.7,766.799 1438.5,720.5 Z"/></g>
<g><path style="opacity:0.945" fill="#92a987" d="M 1440.5,718.5 C 1440.83,718.5 1441.17,718.5 1441.5,718.5C 1441.5,759.833 1441.5,801.167 1441.5,842.5C 1440.83,897.167 1440.17,951.833 1439.5,1006.5C 1439.5,1006.17 1439.5,1005.83 1439.5,1005.5C 1439.83,910.332 1439.5,815.332 1438.5,720.5C 1439.17,719.833 1439.83,719.167 1440.5,718.5 Z"/></g>
<g><path style="opacity:0.004" fill="#c1d3e5" d="M 872.5,718.5 C 872.833,718.5 873.167,718.5 873.5,718.5C 874.809,737.125 874.809,755.791 873.5,774.5C 872.662,774.158 872.328,773.492 872.5,772.5C 872.5,754.833 872.5,737.167 872.5,719.5C 872.5,719.167 872.5,718.833 872.5,718.5 Z"/></g>
<g><path style="opacity:0.533" fill="#5770ab" d="M 872.5,772.5 C 872.328,773.492 872.662,774.158 873.5,774.5C 873.5,813.833 873.5,853.167 873.5,892.5C 872.833,892.5 872.167,892.5 871.5,892.5C 871.168,852.33 871.501,812.33 872.5,772.5 Z"/></g>
<g><path style="opacity:1" fill="#96a82f" d="M 1296.5,861.5 C 1344.06,909.392 1391.72,957.392 1439.5,1005.5C 1439.5,1005.83 1439.5,1006.17 1439.5,1006.5C 1343.33,1006.83 1247.33,1006.5 1151.5,1005.5C 1200.45,958.216 1248.78,910.216 1296.5,861.5 Z"/></g>
<g><path style="opacity:1" fill="#3762a6" d="M 730.5,859.5 C 730.586,860.496 730.252,861.329 729.5,862C 777.372,909.038 824.372,956.871 870.5,1005.5C 775.332,1005.83 680.332,1005.5 585.5,1004.5C 585.5,1004.17 585.5,1003.83 585.5,1003.5C 633.5,956.167 681.167,908.5 728.5,860.5C 729.167,860.167 729.833,859.833 730.5,859.5 Z"/></g>
<g><path style="opacity:0.447" fill="#bec883" d="M 582.5,909.5 C 583.167,909.5 583.833,909.5 584.5,909.5C 584.168,941.004 584.502,972.338 585.5,1003.5C 585.5,1003.83 585.5,1004.17 585.5,1004.5C 584.5,1004.5 583.5,1004.5 582.5,1004.5C 582.5,972.833 582.5,941.167 582.5,909.5 Z"/></g>
<g><path style="opacity:0.463" fill="#e0d373" d="M 18.5,649.5 C 19.4995,767.665 19.8329,885.999 19.5,1004.5C 114.332,1005.5 209.332,1005.83 304.5,1005.5C 304.5,1005.83 304.5,1006.17 304.5,1006.5C 209.167,1006.5 113.833,1006.5 18.5,1006.5C 18.5,887.5 18.5,768.5 18.5,649.5 Z"/></g>
<g><path style="opacity:0.392" fill="#7c93c3" d="M 871.5,892.5 C 872.167,892.5 872.833,892.5 873.5,892.5C 873.5,930.5 873.5,968.5 873.5,1006.5C 776.161,1007.16 679.161,1006.5 582.5,1004.5C 583.5,1004.5 584.5,1004.5 585.5,1004.5C 680.332,1005.5 775.332,1005.83 870.5,1005.5C 871.498,968.004 871.832,930.337 871.5,892.5 Z"/></g>
</svg>
